<?xml version="1.0" encoding="utf-8"?>
<!-- Generator: Adobe Illustrator 16.0.0, SVG Export Plug-In . SVG Version: 6.00 Build 0)  -->
<!DOCTYPE svg PUBLIC "-//W3C//DTD SVG 1.1//EN" "http://www.w3.org/Graphics/SVG/1.1/DTD/svg11.dtd">
<svg version="1.1" id="Layer_1" xmlns="http://www.w3.org/2000/svg" xmlns:xlink="http://www.w3.org/1999/xlink" x="0px" y="0px"
	 width="500px" height="120px" viewBox="0 0 500 120" enable-background="new 0 0 500 120" xml:space="preserve">
<g id="G">
	<text transform="matrix(1.1422 0 0 1 395.0693 11.666)" font-family="'ArialMT'" font-size="9">typography</text>
	<text transform="matrix(1.8278 0 0 1 378.4209 20.666)" font-family="'ArialNarrow'" font-size="11">intelligence</text>
	<text transform="matrix(1.1422 0 0 1 427.9648 28)" font-family="'ArialMT'" font-size="8">SHAPES</text>
	<text transform="matrix(1.1422 0 0 1 434.4756 36.666)" font-family="'ArialMT'" font-size="8">creativity</text>
	<text transform="matrix(1.1422 0 0 1 387.2871 28)" font-family="'Arial-BoldMT'" font-size="7">guideline</text>
	<text transform="matrix(1.1422 0 0 1 372.2803 28)" font-family="'ArialMT'" font-size="7">sas</text>
	<text transform="matrix(1.1422 0 0 1 368.5186 37.666)" font-family="'ArialMT'" font-size="9">design</text>
	<text transform="matrix(1.1422 0 0 1 362.7764 46.666)" font-family="'ArialMT'" font-size="7">reference</text>
	<text transform="matrix(1.1422 0 0 1 364.9766 57.666)" font-family="'Arial-Black'" font-size="10">less</text>
	<text transform="matrix(1.1422 0 0 1 363.1885 70.666)" font-family="'ArialMT'" font-size="12">think</text>
	<text transform="matrix(1.1422 0 0 1 367.4502 86.332)" font-family="'Arial-Black'" font-size="14">act</text>
	<text transform="matrix(1.6904 0 0 1 374.9727 103)" font-family="'ArialMT'" font-size="15">deliver</text>
	<text transform="matrix(1.5327 0 0 1 387.5273 111)" font-family="'ArialMT'" font-size="8">asymmetry</text>
	<text transform="matrix(1.1422 0 0 1 426.1953 65.332)" font-family="'ArialMT'" font-size="18">style</text>
	<text transform="matrix(1.1422 0 0 1 425.9658 72.332)" font-family="'ArialMT'" font-size="8">see</text>
	<text transform="matrix(1.1422 0 0 1 447.2861 74.332)" font-family="'ArialMT'" font-size="10">all</text>
	<text transform="matrix(1.1422 0 0 1 444.0605 82.332)" font-family="'ArialMT'" font-size="10">out</text>
	<text transform="matrix(1.1422 0 0 1 434.1123 92.332)" font-family="'ArialMT'" font-size="10">talk</text>
	<text transform="matrix(0 1 -1 0 453.5 86.2637)" font-family="'ArialMT'" font-size="9">font</text>
	<text transform="matrix(0 1 -1 0 462.5 67.8672)" font-family="'Arial-BoldMT'" font-size="10" letter-spacing="1">plain</text>
</g>
<g id="O">
	<text transform="matrix(1 0 0 1 274.1689 31)" font-family="'ArialMT'" font-size="15">ROUND</text>
	<text transform="matrix(1 0 0 1 273.999 10.333)" font-family="'Arial-BoldMT'" font-size="8">picture</text>
	<text transform="matrix(1.2626 0 0 1 273.3486 17.667)" font-family="'Arial-Black'" font-size="8" letter-spacing="0.792">perfect</text>
	<text transform="matrix(0 1 -1 0 333 35.7715)" font-family="'Arial-BoldMT'" font-size="9">consistency</text>
	<text transform="matrix(0 1 -1 0 341 51.7559)" font-family="'Arial-ItalicMT'" font-size="9">edge</text>
	<text transform="matrix(0 1 -1 0 323 45.0449)" font-family="'Arial-Black'" font-size="13" letter-spacing="1">nature</text>
	<text transform="matrix(1 0 0 1 307.5557 40.333)" font-family="'Arial-BoldMT'" font-size="8">object</text>
	<text transform="matrix(0 1.0665 -1 0 315 43.1733)" font-family="'Arial-Black'" font-size="10" letter-spacing="0.938">longitude</text>
	<text transform="matrix(0 1 -1 0 308 83.8428)" font-family="'Arial-Black'" font-size="5">VARIANT</text>
	<text transform="matrix(0.803 0 0 1 263.3984 115.1387)" font-family="'Arial-Black'" font-size="14.7191">SPACE</text>
	<text transform="matrix(1 0 0 1 276.6602 103.332)" font-family="'Arial-BoldMT'" font-size="9">curve</text>
	<text transform="matrix(1.3777 0 0 1 270.6973 96.334)" font-family="'ArialNarrow'" font-size="10">crisper</text>
	<text transform="matrix(0 1 -1 0 238 35.499)" font-family="'Arial-BoldMT'" font-size="9">outlining</text>
	<text transform="matrix(0 1 -1 0 246 26.7461)" font-family="'Arial-Black'" font-size="10" letter-spacing="1">symmetry</text>
	<text transform="matrix(0 1 -1 0 253 17.9922)" font-family="'Arial-ItalicMT'" font-size="12" letter-spacing="3">recursive</text>
	<text transform="matrix(0 1 -1 0 264 10.748)" font-family="'Arial-BoldMT'" font-size="11" letter-spacing="1">tinkering</text>
	<text transform="matrix(0 1 -1 0 264 76.9824)" font-family="'Arial-BoldMT'" font-size="6">inline</text>
	<text transform="matrix(1 0 0 1 249.835 103.333)" font-family="'Arial-BoldMT'" font-size="11">IN</text>
</g>
<g id="L">
	<text transform="matrix(1 0 0 1 141.5557 20.667)" font-family="'Arial-BoldMT'" font-size="16">TOP</text>
	<text transform="matrix(0 1 -1 0 165 23.6855)" font-family="'Arial-BoldMT'" font-size="11" letter-spacing="1">decorated</text>
	<text transform="matrix(0 1.0509 -1 0 156 22.9971)" font-family="'Arial-Black'" font-size="9" letter-spacing="0.952">CONDENSED</text>
	<text transform="matrix(0 1 -1 0 149 22.7568)" font-family="'ArialMT'" font-size="7">intermediate</text>
	<text transform="matrix(0 1 -1 0 143 25.2461)" font-family="'ArialMT'" font-size="6">call to action</text>
	<text transform="matrix(0 1 -1 0 143 75.3818)" font-family="'Arial-BoldMT'" font-size="6">kappa</text>
	<text transform="matrix(1 0 0 1 142.7246 111)" font-family="'Arial-Black'" font-size="13">bottom</text>
	<text transform="matrix(0 1.2299 -1 0 149 75.9795)" font-family="'Arial-BoldMT'" font-size="7">briefly</text>
	<text transform="matrix(1 0 0 1 195.0908 110)" font-family="'Arial-Black'" font-size="7">www</text>
	<text transform="matrix(0 1 -1 0 217 89.4639)" font-family="'Arial-BoldMT'" font-size="11" letter-spacing="1">end</text>
	<text transform="matrix(1.2215 0 0 1 164.1685 102)" font-family="'ArialMT'" font-size="9">CONTENT</text>
	<text transform="matrix(1.9907 0 0 1 177.4014 93.7881)" font-family="'ArialNarrow'" font-size="6">vectors</text>
</g>
<g id="B">
	<text transform="matrix(1 0 0 1 40.832 16.666)" font-family="'Arial-BoldMT'" font-size="14">border</text>
	<text transform="matrix(1 0 0 1 40.8877 26.666)" font-family="'ArialMT'" font-size="10">ANIMATIONS</text>
	<text transform="matrix(0 1 -1 0 27.334 8.2393)" font-family="'Arial-BoldMT'" font-size="17">graphics</text>
	<text transform="matrix(1 0 0 1 25.832 91)" font-family="'ArialMT'" font-size="14">artsy</text>
	<text transform="matrix(0 1 -1 0 40 47.1885)" font-family="'ArialMT'" font-size="11">root</text>
	<text transform="matrix(0 1 -1 0 40 28.9082)" font-family="'ArialMT'" font-size="9">path</text>
	<text transform="matrix(1 0 0 1 37.501 76.666)" font-family="'ArialMT'" font-size="14">sys</text>
	<text transform="matrix(0 1 -1 0 48 35.9648)" font-family="'ArialMT'" font-size="7">square</text>
	<text transform="matrix(0 1 -1 0 52 29.2227)" font-family="'Arial-BoldMT'" font-size="8">html</text>
	<text transform="matrix(0 1 -1 0 53 49.166)" font-family="'Arial-BoldMT'" font-size="10">tag</text>
	<text transform="matrix(1 0 0 1 64.1865 55.666)" font-family="'ArialMT'" font-size="11">texture</text>
	<text transform="matrix(1 0 0 1 59.418 62.666)" font-family="'ArialMT'" font-size="7">STRUCTURE</text>
	<text transform="matrix(1 0 0 1 59.9165 68.666)" font-family="'ArialMT'" font-size="7">MANAGEMENT</text>
	<text transform="matrix(1 0 0 1 89.5771 75.666)" font-family="'ArialMT'" font-size="7">template</text>
	<text transform="matrix(1 0 0 1 87.3877 84.666)" font-family="'Arial-Black'" font-size="10">source</text>
	<text transform="matrix(1 0 0 1 82.9385 104.332)" font-family="'ArialMT'" font-size="10">radical</text>
	<text transform="matrix(1 0 0 1 105.0532 94.666)" font-family="'ArialMT'" font-size="10">PHP</text>
	<text transform="matrix(1.1568 0 0 1 24.9067 102)" font-family="'ArialMT'" font-size="10">wireframes</text>
	<text transform="matrix(1 0 0 1 82.2744 95.334)" font-family="'ArialMT'" font-size="11">arial</text>
	<text transform="matrix(1 0 0 1 24.3638 113)" font-family="'ArialMT'" font-size="14">harmony</text>
	<text transform="matrix(1 0 0 1 85.7056 112.666)" font-family="'ArialMT'" font-size="10">QA</text>
	<text transform="matrix(1 0 0 1 86.9976 35.666)" font-family="'ArialMT'" font-size="12">class</text>
	<text transform="matrix(1 0 0 1 85.832 47.334)" font-family="'Arial-Black'" font-size="14">size</text>
	<text transform="matrix(1 0 0 1 86.6675 17.666)" font-family="'ArialMT'" font-size="12">Js</text>
	<text transform="matrix(1 0 0 1 102.0024 26.666)" font-family="'ArialMT'" font-size="12">Ts</text>
</g>
</svg>
